<mxfile host="Electron" agent="Mozilla/5.0 (Macintosh; Intel Mac OS X 10_15_7) AppleWebKit/537.36 (KHTML, like Gecko) draw.io/24.7.8 Chrome/128.0.6613.36 Electron/32.0.1 Safari/537.36" version="24.7.8">
  <diagram name="Page-1" id="_-UOqmC6SpTOEtFN5-NO">
    <mxGraphModel dx="737" dy="674" grid="1" gridSize="10" guides="1" tooltips="1" connect="1" arrows="1" fold="1" page="1" pageScale="1" pageWidth="3300" pageHeight="4681" math="0" shadow="0">
      <root>
        <mxCell id="0" />
        <mxCell id="1" parent="0" />
        <mxCell id="_Cp7GOMcYGCP02HvRFH5-2" value="TPA3116D2" style="rounded=0;whiteSpace=wrap;html=1;" vertex="1" parent="1">
          <mxGeometry x="260" y="240" width="330" height="190" as="geometry" />
        </mxCell>
        <mxCell id="_Cp7GOMcYGCP02HvRFH5-3" value="" style="rounded=1;whiteSpace=wrap;html=1;" vertex="1" parent="1">
          <mxGeometry x="280" y="380" width="85" height="40" as="geometry" />
        </mxCell>
        <mxCell id="_Cp7GOMcYGCP02HvRFH5-4" value="" style="rounded=1;whiteSpace=wrap;html=1;" vertex="1" parent="1">
          <mxGeometry x="382.5" y="380" width="85" height="40" as="geometry" />
        </mxCell>
        <mxCell id="_Cp7GOMcYGCP02HvRFH5-5" value="" style="rounded=1;whiteSpace=wrap;html=1;" vertex="1" parent="1">
          <mxGeometry x="490" y="380" width="85" height="40" as="geometry" />
        </mxCell>
        <mxCell id="_Cp7GOMcYGCP02HvRFH5-6" value="ARDUINO UNO" style="whiteSpace=wrap;html=1;aspect=fixed;" vertex="1" parent="1">
          <mxGeometry x="260" y="580" width="300" height="300" as="geometry" />
        </mxCell>
        <mxCell id="_Cp7GOMcYGCP02HvRFH5-7" value="" style="rounded=0;whiteSpace=wrap;html=1;direction=south;" vertex="1" parent="1">
          <mxGeometry x="510" y="600" width="40" height="270" as="geometry" />
        </mxCell>
        <mxCell id="_Cp7GOMcYGCP02HvRFH5-8" value="AD9833" style="rounded=0;whiteSpace=wrap;html=1;direction=south;" vertex="1" parent="1">
          <mxGeometry x="820" y="410" width="170" height="300" as="geometry" />
        </mxCell>
        <mxCell id="_Cp7GOMcYGCP02HvRFH5-9" value="" style="rounded=0;whiteSpace=wrap;html=1;direction=south;" vertex="1" parent="1">
          <mxGeometry x="830" y="425" width="40" height="270" as="geometry" />
        </mxCell>
        <mxCell id="_Cp7GOMcYGCP02HvRFH5-10" value="" style="ellipse;whiteSpace=wrap;html=1;aspect=fixed;" vertex="1" parent="1">
          <mxGeometry x="640" y="820" width="80" height="80" as="geometry" />
        </mxCell>
        <mxCell id="_Cp7GOMcYGCP02HvRFH5-11" value="" style="ellipse;whiteSpace=wrap;html=1;aspect=fixed;" vertex="1" parent="1">
          <mxGeometry x="720" y="820" width="80" height="80" as="geometry" />
        </mxCell>
        <mxCell id="_Cp7GOMcYGCP02HvRFH5-12" value="" style="ellipse;whiteSpace=wrap;html=1;aspect=fixed;" vertex="1" parent="1">
          <mxGeometry x="800" y="820" width="80" height="80" as="geometry" />
        </mxCell>
        <mxCell id="_Cp7GOMcYGCP02HvRFH5-13" value="" style="ellipse;whiteSpace=wrap;html=1;aspect=fixed;" vertex="1" parent="1">
          <mxGeometry x="680" y="890" width="80" height="80" as="geometry" />
        </mxCell>
        <mxCell id="_Cp7GOMcYGCP02HvRFH5-14" value="" style="ellipse;whiteSpace=wrap;html=1;aspect=fixed;" vertex="1" parent="1">
          <mxGeometry x="760" y="890" width="80" height="80" as="geometry" />
        </mxCell>
        <mxCell id="_Cp7GOMcYGCP02HvRFH5-15" value="" style="rounded=0;whiteSpace=wrap;html=1;" vertex="1" parent="1">
          <mxGeometry x="740" y="240" width="200" height="90" as="geometry" />
        </mxCell>
        <mxCell id="_Cp7GOMcYGCP02HvRFH5-16" value="" style="rounded=1;whiteSpace=wrap;html=1;" vertex="1" parent="1">
          <mxGeometry x="745" y="280" width="85" height="40" as="geometry" />
        </mxCell>
        <mxCell id="_Cp7GOMcYGCP02HvRFH5-17" value="" style="rounded=1;whiteSpace=wrap;html=1;" vertex="1" parent="1">
          <mxGeometry x="850" y="280" width="85" height="40" as="geometry" />
        </mxCell>
      </root>
    </mxGraphModel>
  </diagram>
</mxfile>
